<svg width="24" height="24" viewBox="0 0 24 24" fill="none" xmlns="http://www.w3.org/2000/svg">
    <path d="M3 3L21 21" stroke="#159A90" stroke-width="1.8" stroke-linecap="round"/>
    <path d="M10.6 6.2C11.1 6.07 11.54 6 12 6C16.6 6 20.2 8.5 22 12C21.18 13.58 20.02 14.95 18.6 16" stroke="#159A90" stroke-width="1.8" stroke-linejoin="round"/>
    <path d="M14.8 14.95C14.07 15.6 13.11 16 12 16C9.79 16 8 14.21 8 12C8 10.89 8.4 9.93 9.05 9.2" stroke="#1FB6AA" stroke-width="1.8" stroke-linejoin="round"/>
    <path d="M6.1 7.1C4.4 8.27 3.01 9.94 2 12C3.8 15.5 7.4 18 12 18C13.88 18 15.59 17.58 17.1 16.85" stroke="#159A90" stroke-width="1.8" stroke-linejoin="round"/>
</svg>