<svg width="16" height="16" viewBox="0 0 24 24" fill="none" xmlns="http://www.w3.org/2000/svg">
    <path d="M10 13C10.4295 13.5741 10.9774 14.0491 11.6066 14.3929C12.2357 14.7367 12.9315 14.9411 13.6467 14.9923C14.3618 15.0435 15.0796 14.9403 15.7513 14.6897C16.4231 14.4392 17.0331 14.047 17.54 13.54L20.54 10.54C21.4508 9.59695 21.9548 8.33394 21.9434 7.02299C21.932 5.71205 21.4061 4.45794 20.4791 3.5309C19.5521 2.60386 18.298 2.07801 16.987 2.0666C15.6761 2.05519 14.4131 2.55918 13.47 3.47L11.75 5.18" stroke="currentColor" strokeWidth="1.5" strokeLinecap="round"/>
    <path d="M14 11C13.5705 10.4259 13.0226 9.95086 12.3934 9.60708C11.7643 9.2633 11.0685 9.05892 10.3533 9.00773C9.63819 8.95654 8.92044 9.05971 8.24867 9.31026C7.57689 9.56081 6.96692 9.95303 6.46 10.46L3.46 13.46C2.54922 14.4031 2.04523 15.6661 2.05664 16.977C2.06804 18.288 2.59389 19.5421 3.52093 20.4691C4.44797 21.3961 5.70208 21.922 7.01302 21.9334C8.32397 21.9448 9.58697 21.4408 10.53 20.53L12.24 18.82" stroke="currentColor" strokeWidth="1.5" strokeLinecap="round"/>
</svg>