<svg width="20" height="20" viewBox="0 0 24 24" fill="none" xmlns="http://www.w3.org/2000/svg">
    <path d="M15.1008 15.0272L15.6446 15.5437L15.1008 15.0272ZM15.5562 14.5477L15.0124 14.0312L15.5562 14.5477ZM17.9729 14.2123L17.5987 14.8623L17.9729 14.2123ZM19.8834 15.312L19.5092 15.962L19.8834 15.312ZM20.4217 18.7584L20.9655 19.275L20.4217 18.7584ZM19.0012 20.254L18.4574 19.7375L19.0012 20.254ZM17.6763 20.9631L17.75 21.7095L17.6763 20.9631ZM7.8154 16.4752L8.3592 15.9587L7.8154 16.4752ZM9.19075 8.80507L9.73454 9.32159L9.19075 8.80507ZM9.47756 8.50311L10.0214 9.01963L9.47756 8.50311ZM9.63428 5.6931L10.2467 5.26012L9.63428 5.6931ZM8.3733 3.90961L7.7609 4.3426L8.3733 3.90961ZM11.0632 13.0559L11.607 12.5394L11.0632 13.0559ZM15.6446 15.5437L16.1 15.0642L15.0124 14.0312L14.557 14.5107L15.6446 15.5437ZM17.5987 14.8623L19.5092 15.962L20.2575 14.662L18.347 13.5623L17.5987 14.8623ZM19.8779 18.2419L18.4574 19.7375L19.545 20.7705L20.9655 19.275L19.8779 18.2419ZM8.3592 15.9587C4.48307 11.8778 3.83289 8.43556 3.75185 6.92574L2.25401 7.00613C2.35326 8.85536 3.13844 12.6403 7.27161 16.9917L8.3592 15.9587ZM9.73454 9.32159L10.0214 9.01963L8.93377 7.9866L8.64695 8.28856L9.73454 9.32159ZM10.2467 5.26012L8.98569 3.47663L7.7609 4.3426L9.02189 6.12608L10.2467 5.26012ZM9.19075 8.80507C8.64695 8.28856 8.64626 8.28929 8.64556 8.29002L8.64415 8.29152L8.64125 8.29463L8.63515 8.30127L8.62182 8.31625C8.61247 8.32701 8.60219 8.33931 8.5912 8.3532C8.56922 8.38098 8.54435 8.41511 8.51826 8.45588C8.46595 8.53764 8.40921 8.64531 8.36117 8.78033C8.26346 9.0549 8.21022 9.4185 8.27675 9.87257C8.40746 10.7647 8.99202 11.9644 10.5194 13.5724L11.607 12.5394C10.1793 11.0363 9.82765 10.1106 9.7609 9.65511C9.72871 9.43536 9.76142 9.31957 9.77436 9.28321C9.78163 9.26277 9.78639 9.25709 9.78174 9.26437L9.76742 9.28407C9.76363 9.28885 9.75908 9.29437 9.75364 9.30063L9.7448 9.31056L9.73985 9.31594L9.73724 9.31873L9.7359 9.32015L9.73454 9.32159L9.19075 8.80507ZM10.5194 13.5724C12.0422 15.1757 13.1924 15.806 14.0699 15.9485C14.5201 16.0216 14.8846 15.9632 15.1606 15.8544C15.2955 15.8012 15.4023 15.7387 15.4824 15.6819C15.5223 15.6535 15.5556 15.6266 15.5825 15.6031L15.6181 15.5703L15.6324 15.5562L15.6388 15.5497L15.6417 15.5467L15.6432 15.5452L15.6446 15.5437L15.1008 15.0272C14.557 14.5107 14.5577 14.51 14.5583 14.5093L14.5597 14.5078L14.5623 14.5051L14.5675 14.4998L14.577 14.4904L14.5933 14.4754C14.6029 14.467 14.61 14.4616 14.6146 14.4584C14.6239 14.4517 14.623 14.454 14.6102 14.459C14.5909 14.4666 14.5001 14.4987 14.3103 14.4679C13.9078 14.4025 13.0391 14.0472 11.607 12.5394L10.5194 13.5724ZM8.98569 3.47663C7.9721 2.04305 5.94388 1.80119 4.7177 3.09213L5.80529 4.12516C6.32812 3.57471 7.24855 3.61795 7.7609 4.3426L8.98569 3.47663ZM18.4574 19.7375C18.1783 20.0313 17.8864 20.1887 17.6026 20.2167L17.75 21.7095C18.497 21.6357 19.1016 21.2373 19.545 20.7705L18.4574 19.7375ZM10.0214 9.01963C10.9889 8.00095 11.0574 6.40678 10.2467 5.26012L9.02189 6.12608C9.44404 6.72315 9.3793 7.51753 8.93377 7.9866L10.0214 9.01963ZM19.5092 15.962C20.3301 16.4345 20.4907 17.5968 19.8779 18.2419L20.9655 19.2749C22.2705 17.901 21.8904 15.6019 20.2575 14.662L19.5092 15.962ZM16.1 15.0642C16.4854 14.6584 17.086 14.5672 17.5987 14.8623L18.347 13.5623C17.2485 12.93 15.8862 13.1113 15.0124 14.0312L16.1 15.0642ZM11.4622 18.5423C10.4785 17.9241 9.43149 17.0876 8.3592 15.9587L7.27161 16.9917C8.42564 18.2067 9.56897 19.1241 10.6641 19.8123L11.4622 18.5423ZM17.6026 20.2167C17.0561 20.2707 16.1912 20.2842 15.113 20.0584L14.8056 21.5266C16.0541 21.788 17.0742 21.7762 17.75 21.7095L17.6026 20.2167Z" fill="currentColor"/>
</svg>